<svg xmlns="http://www.w3.org/2000/svg" xml:space="preserve" width="2000" height="142" data-id="lg_AGsypfDaApjnhlMB43" data-version="1" viewBox="0 0 2000 142"><g data-padding="20"><g transform="translate(10 2.536)scale(.96429)"><rect width="560" height="101.7" x="346.167" y="-380.128" fill="none" rx="0" ry="0" transform="translate(400.5 379.91)"/><path fill="#fff" d="M756.457 78.912v-3.6l.09-.04 1.41-.22q4-.53 4.83-1.45 1.28-1.45 1.28-6.33v-44.04q0-5.01-1.06-5.97-1.05-.97-2.55-1.26-1.49-.28-4-.5v-3.82h24.04v3.82q-2.46.26-3.95.5-1.5.25-2.29.95-1.32 1.23-1.32 6.28v44.04q0 4.92.79 5.89.79.96 1.96 1.25 1.16.28 3.14.59l1.67.27v3.64Zm53.62-53.09v9.14q3.99-7.96 14.32-13.19 7.6 4.05 11.69 8.88 6.46 7.78 7.82 23.12.44 5.27.44 10.19t.18 6.68q.17 1.76.75 2.66.57.9 1.67 1.19 1.09.28 2.19.46 1.1.17 1.56.2.46.02.95.11v3.64h-24.04v-3.64q2.5-.31 4-.6 1.49-.28 2.28-1.07 1.28-1.28 1.28-7.08v-5.1q0-10.06-.48-13.95-.49-3.89-1.21-6.42-.73-2.52-1.96-4.76-2.42-4.22-7.56-8.31-13.88 8.57-13.88 23.2v14.9q0 5.8.85 6.94.86 1.15 2.13 1.48 1.28.33 3.48.63l1.14.14v3.64h-24.04v-3.6q.26-.13.68-.15.42-.03 1.54-.18t2.33-.46 1.87-1.06q1.09-1.18 1.09-5.97v-31.34q0-4-1.01-4.9t-2.5-1.18q-1.49-.29-4-.46v-3.78Zm67.58 0v9.14q4-7.96 14.33-13.19 7.6 4.05 11.69 8.88 6.46 7.78 7.82 23.12.44 5.27.44 10.19t.18 6.68q.17 1.76.74 2.66.58.9 1.67 1.19 1.1.28 2.2.46 1.1.17 1.56.2.46.02.95.11v3.64h-24.04v-3.64q2.5-.31 4-.6 1.49-.28 2.28-1.07 1.28-1.28 1.28-7.08v-5.1q0-10.06-.49-13.95-.48-3.89-1.21-6.42-.72-2.52-1.95-4.76-2.42-4.22-7.56-8.31-13.89 8.57-13.89 23.2v14.9q0 5.8.86 6.94.86 1.15 2.13 1.48 1.28.33 3.47.63l1.15.14v3.64h-24.04v-3.6q.26-.13.68-.15.42-.03 1.54-.18t2.33-.46 1.86-1.06q1.1-1.18 1.1-5.97v-31.34q0-4-1.01-4.9t-2.5-1.18q-1.5-.29-4-.46v-3.78Zm77.65 53.08v-3.69q5.58-.53 6.63-1.47 1.06-.95 1.25-2.13.2-1.19.2-3.03v-46.67q0-3.74-1.1-4.64t-2.7-1.23-4.28-.55v-3.82h25.62v3.78q-5.37.26-6.62 1.14t-1.6 2.04q-.35 1.17-.35 3.1v47.94q0 2.9 2.63 3.74 2.07.66 7.76.66t8.81-.13q3.12-.14 5.32-.62 2.19-.48 3.64-1.43 1.46-.94 2.51-2.52 1.49-2.33 3.6-9.63h4.09l-3.38 22.59h-3.78q-.13-1.63-1.08-2.53-.94-.9-2.48-.9Zm86.58 2.29q-8.35-5.01-12.31-9.32-6.94-7.6-8.35-22.06-.52-5.18-.52-9.69 0-4.5-.09-6.02t-.71-2.44q-1.05-1.67-5.36-2.06v-3.78h21.62v3.78q-4.35.44-5.62 1.93-1.01 1.27-1.01 6.15t.15 9.1q.16 4.22.6 7.56t1.27 6q.84 2.65 2.24 5.03 2.55 4.39 8.09 9.58 5.67-5.32 7.58-8.64t2.74-5.97q.84-2.66 1.28-6 .75-5.67.75-12.51 0-6.83-.18-8.15t-.83-2.15q-1.28-1.49-5.59-1.93v-3.78h21.54v3.78q-4.31.61-5.06 1.73-.74 1.12-.9 2.62-.15 1.49-.15 6.08 0 4.6-.51 9.78-.5 5.19-1.58 9.23t-2.74 7.14q-1.67 3.1-4.05 5.69-3.95 4.31-12.3 9.32m34.36-2.29v-3.6q3.91-.35 4.77-1.03t1.19-1.59q.33-.9.77-2.35l.26-.88q3.56-10.72 14.77-17.93-9.28-5.36-12.57-11.86-1.1-2.11-1.65-4.13t-.97-3.1-1.16-1.69q-1.06-.88-5.41-1.32v-3.6h23.12v3.6q-4.44.31-5.32.9t-.94 1.14q-.07.55-.07 1.26 0 .7.48 2.46.49 1.75 1.67 4 2.99 5.62 8.13 9.27 6.16-3.61 9.54-9.27 2.46-4.09 2.46-6.42 0-1.67-.7-2.15-1.23-.88-5.14-1.19v-3.6h20.69v3.6q-3.91.44-4.92 1.19-1.01.74-1.4 1.6-.4.86-.8 2.09l-.3.96q-1.72 4.88-3.91 7.65-3.96 4.92-10.02 8.57 12.08 7.25 14.89 17.97.88 3.7 1.67 4.4 1.1 1.01 5.28 1.45v3.6h-23.07v-3.6q4.17-.31 5.12-.9.94-.6 1.07-1.14.13-.55.13-1.28 0-.72-.44-2.7t-1.62-4.53q-3.03-6.41-8.53-10.41-6.28 4-9.97 10.41-2.68 4.7-2.68 7.21 0 1.67.92 2.15 1.67.88 6.81 1.19v3.6Zm85.39 2.29q-8.35-5.01-12.31-9.32-6.94-7.6-8.35-22.06-.52-5.18-.52-9.69 0-4.5-.09-6.02t-.7-2.44q-1.06-1.67-5.37-2.06v-3.78h21.63v3.78q-4.36.44-5.63 1.93-1.01 1.27-1.01 6.15t.15 9.1q.16 4.22.6 7.56t1.27 6q.84 2.65 2.24 5.03 2.55 4.39 8.09 9.58 5.67-5.32 7.58-8.64t2.75-5.97q.83-2.66 1.27-6 .75-5.67.75-12.51 0-6.83-.18-8.15-.17-1.32-.83-2.15-1.28-1.49-5.58-1.93v-3.78h21.53v3.78q-4.31.61-5.06 1.73-.74 1.12-.9 2.62-.15 1.49-.15 6.08 0 4.6-.51 9.78-.5 5.19-1.58 9.23-1.07 4.04-2.74 7.14t-4.05 5.69q-3.95 4.31-12.3 9.32m69.12-37.49-2.41-1.93q2.46-2.37 2.46-7.21 0-2.37-2.24-3.73-1.89-1.1-5.76-1.1-8.35 0-8.35 5.45v33.4q0 1.89.37 3.12.38 1.23 1.7 1.97 2.28 1.32 10.54 1.59v3.64h-29.35v-3.6l.09-.04q5.18-.53 6.21-1.48 1.04-.94 1.28-2.19.24-1.26.24-3.37v-30.45q0-4.79-.95-5.93-.94-1.15-2.3-1.58-1.36-.44-3.61-.71v-3.73h9.1q5.41 0 7.69-.22 2.29-.22 3.6-.31 3.96-.35 6.44-.35 2.49 0 5.12.39 2.64.4 4.66 1.37 4.44 2.1 4.44 6.54 0 3.56-2.9 6.64-2.73 2.9-6.07 3.82m55.23 27.16q-4.96 7.73-13.8 12.09-7.6-4.05-11.68-8.88-6.46-7.78-7.83-23.12-.44-5.27-.44-10.06t-.22-6.59-.85-2.79q-.64-.99-1.8-1.36-1.17-.38-3.1-.55v-3.78h22.15v3.78l-1.1.13q-1.98.26-3.15.55-1.16.28-1.78 1.07-.96 1.32-.96 6.86v5.1q0 6.72.28 11.64.29 4.92 1.43 8.75 2.16 7.29 9.45 13.05 13.49-8.31 13.49-23.25v-14.85q0-5.93-.81-6.99-.81-1.05-1.98-1.36-1.16-.31-3.14-.57l-1.06-.13v-3.78h22.11v3.73l-.09.05q-3.87.35-4.75 1.62-1.36 1.98-1.36 7.78v19.64q0 19.65-5.58 30.33-6.77 13-23.99 15.73l-.93-4.62q10.55-2.59 15.56-9.58 4.88-6.76 5.93-19.64"/><rect width="206.184" height="32.77" x="523.075" y="-345.663" fill="none" rx="0" ry="0" transform="translate(400.5 455.11)"/><path fill="#fff" d="M936.087 123.772v2.03h-6.06v9.14h-2.18v-19.14h10.35v2.03h-8.17v5.94Zm11.05-2.61q2.55 0 3.94 1.29t1.39 3.64q0 .49-.06 1-.05.51-.2.74h-9.77v.29q0 1.1.29 2.12.29 1.01.87 1.8.58.78 1.46 1.24.89.47 2.11.47.69 0 1.36-.16t1.27-.41q.61-.25 1.14-.54.52-.29.92-.58l.35 1.66q-.38.23-.93.5-.55.28-1.21.51-.67.23-1.47.39t-1.67.16q-1.62 0-2.87-.56-1.24-.57-2.09-1.54-.84-.97-1.27-2.25-.44-1.27-.44-2.66 0-1.43.45-2.72t1.32-2.27q.87-.99 2.16-1.55 1.29-.57 2.95-.57m-.09 1.62q-1.91 0-2.97 1-1.06 1.01-1.44 2.51h7.92q.03-.14.03-.26v-.26q0-.72-.29-1.29-.29-.56-.79-.94-.49-.38-1.13-.57-.63-.19-1.33-.19m15.08-1.62q2.55 0 3.94 1.29 1.4 1.29 1.4 3.64 0 .49-.06 1t-.21.74h-9.77v.29q0 1.1.29 2.12.29 1.01.87 1.8.58.78 1.47 1.24.88.47 2.1.47.69 0 1.36-.16t1.28-.41 1.13-.54.93-.58l.34 1.66q-.37.23-.92.5-.55.28-1.22.51t-1.47.39q-.79.16-1.66.16-1.63 0-2.87-.56-1.25-.57-2.09-1.54t-1.28-2.25q-.43-1.27-.43-2.66 0-1.43.45-2.72t1.32-2.27q.87-.99 2.16-1.55 1.29-.57 2.94-.57m-.09 1.62q-1.91 0-2.97 1-1.06 1.01-1.44 2.51h7.92q.03-.14.03-.26v-.26q0-.72-.29-1.29-.29-.56-.78-.94-.5-.38-1.13-.57-.64-.19-1.34-.19m11.31-9.3v21.46h-2.03v-21.46Zm12.42 21.46v-19.14h.15q1.39-.06 3.02-.11 1.62-.04 3.16-.04 2.06 0 3.75.58 1.7.58 2.89 1.6 1.53 1.39 2.23 3.39t.7 4.35q0 1.97-.55 3.72-.56 1.76-1.7 3.09-1.15 1.34-2.89 2.12t-4.11.78q-2.06 0-3.7-.1t-2.95-.24m6.5-17.38q-1.16 0-2.28.02-1.11.01-2.04.07v15.55q1.83.17 4.38.17 3.45 0 5.19-2.03t1.74-6q0-1.74-.36-3.18-.37-1.43-1.19-2.45-.83-1.01-2.16-1.58-1.34-.57-3.28-.57m15.33 4.04v13.34h-2.03v-13.34Zm-2.46-4.88q0-.58.42-1.04t1.03-.46q.58 0 1.04.46t.46 1.04q0 .61-.46 1.03t-1.04.42q-.61 0-1.03-.42t-.42-1.03m18.27 18.22h-2.03v-8.82q0-1.77-.82-2.51-.81-.74-2.03-.74-1.47 0-2.66.91-1.19.92-1.71 2.6v8.56h-2.03v-13.34h1.59l.23 2.49h.12q.38-1.22 1.58-2.07 1.2-.86 3.12-.86 1.74 0 2.91.77 1.18.77 1.49 2.16.29-.58.73-1.1.43-.52 1.04-.93t1.4-.65q.78-.25 1.76-.25.9 0 1.73.25.83.24 1.45.79.62.56 1 1.45.38.9.38 2.21v9.08h-2.03v-8.82q0-1.77-.81-2.51-.82-.74-2.03-.74-1.48 0-2.67.91-1.19.92-1.71 2.6Zm19.6-13.78q2.55 0 3.94 1.29 1.4 1.29 1.4 3.64 0 .49-.06 1t-.2.74h-9.78v.29q0 1.1.29 2.12.29 1.01.87 1.8.58.78 1.47 1.24.88.47 2.1.47.7 0 1.36-.16.67-.16 1.28-.41t1.13-.54.93-.58l.35 1.66q-.38.23-.93.5-.55.28-1.22.51t-1.46.39q-.8.16-1.67.16-1.63 0-2.87-.56-1.25-.57-2.09-1.54t-1.28-2.25q-.43-1.27-.43-2.66 0-1.43.45-2.72t1.32-2.27q.87-.99 2.16-1.55 1.29-.57 2.94-.57m-.09 1.62q-1.91 0-2.97 1-1.06 1.01-1.43 2.51h7.91q.03-.14.03-.26v-.26q0-.72-.29-1.29-.29-.56-.78-.94t-1.13-.57-1.34-.19m20.52 12.16h-2.03v-8.82q0-1.74-.79-2.49-.78-.76-2-.76-.72 0-1.43.23-.71.24-1.32.68-.61.45-1.08 1.11-.46.65-.72 1.49v8.56h-2.03v-13.34h1.59l.24 2.49h.11q.38-1.22 1.68-2.07 1.31-.86 3.25-.86.93 0 1.76.25.82.24 1.43.79.61.56.97 1.45.37.9.37 2.21Zm8.32-12.16q-1.39 0-2.02.51-.62.51-.62 1.38 0 .29.09.61.08.32.33.59.25.28.67.52.42.25 1.11.4l2.06.46q1.22.26 1.96.71t1.15.97q.4.52.53 1.06t.13 1q0 .9-.36 1.68-.36.79-1.04 1.37t-1.67.91-2.2.33q-1.54 0-2.85-.45-1.3-.45-2.08-1l.52-1.88q1.04.96 2.32 1.39 1.27.44 2.29.44 1.45 0 2.2-.72.76-.71.76-1.49 0-.26-.03-.59-.03-.34-.23-.68-.21-.35-.61-.66-.41-.3-1.16-.48l-2.79-.69q-.95-.23-1.56-.61t-.96-.83-.49-.95q-.15-.51-.15-1.03 0-1.77 1.32-2.83t3.52-1.06q1.14 0 2.44.3 1.31.31 2.2.89l-.55 1.74q-.58-.49-1.72-.9-1.15-.41-2.51-.41m10.9-1.18v13.34h-2.03v-13.34Zm-2.46-4.88q0-.58.42-1.04t1.03-.46q.58 0 1.04.46.47.46.47 1.04 0 .61-.47 1.03-.46.42-1.04.42-.61 0-1.03-.42t-.42-1.03m12.85 4.44q1.76 0 3.04.59 1.28.6 2.1 1.6.83 1 1.22 2.29t.39 2.71-.39 2.68q-.39 1.27-1.2 2.21t-2.08 1.49q-1.26.55-2.97.55-1.77 0-3.06-.58t-2.13-1.55-1.25-2.25q-.4-1.27-.4-2.69t.4-2.7q.41-1.28 1.24-2.25.82-.97 2.1-1.53 1.27-.57 2.99-.57m.08 12.59q1.16 0 2.02-.44.85-.43 1.42-1.17.56-.74.83-1.71.26-.98.26-2.05 0-1.1-.28-2.12-.27-1.01-.85-1.78t-1.47-1.23q-.88-.47-2.1-.47-1.19 0-2.03.44-.84.43-1.39 1.16-.55.72-.82 1.7-.26.97-.26 2.04 0 1.1.28 2.12.27 1.01.84 1.8.57.78 1.45 1.24.88.47 2.1.47m21.71 1.19h-2.03v-8.82q0-1.74-.78-2.49-.78-.76-2-.76-.73 0-1.44.23-.71.24-1.32.68-.6.45-1.07 1.11-.46.65-.72 1.49v8.56h-2.03v-13.34h1.59l.23 2.49h.12q.38-1.22 1.68-2.07 1.31-.86 3.25-.86.93 0 1.75.25.83.24 1.44.79.61.56.97 1.45.36.9.36 2.21Zm8.34-12.16q-1.4 0-2.02.51t-.62 1.38q0 .29.08.61.09.32.34.59.24.28.67.52.42.25 1.11.4l2.06.46q1.22.26 1.96.71t1.14.97q.41.52.54 1.06t.13 1q0 .9-.36 1.68-.36.79-1.05 1.37-.68.58-1.66.91-.99.33-2.21.33-1.53 0-2.84-.45-1.3-.45-2.09-1l.52-1.88q1.05.96 2.32 1.39 1.28.44 2.3.44 1.45 0 2.2-.72.75-.71.75-1.49 0-.26-.03-.59-.02-.34-.23-.68-.2-.35-.61-.66-.4-.3-1.16-.48l-2.78-.69q-.96-.23-1.57-.61t-.95-.83q-.35-.45-.5-.95-.14-.51-.14-1.03 0-1.77 1.32-2.83t3.52-1.06q1.13 0 2.44.3 1.3.31 2.2.89l-.55 1.74q-.58-.49-1.72-.9-1.15-.41-2.51-.41"/></g><path fill="transparent" stroke="transparent" d="M720 0h560v142H720z"/></g></svg>